{
  "accessors": [
    {
      "bufferView": 2,
      "componentType": 5126,
      "count": 804,
      "max": [
        0.11000002920627594,
        0.33229559659957886,
        0.33229559659957886
      ],
      "min": [
        -0.10999996215105057,
        -0.33229559659957886,
        -0.33229559659957886
      ],
      "type": "VEC3"
    },
    {
      "bufferView": 2,
      "byteOffset": 9648,
      "componentType": 5126,
      "count": 804,
      "max": [
        1.0,
        1.0,
        1.0
      ],
      "min": [
        -1.0,
        -1.0,
        -1.0
      ],
      "type": "VEC3"
    },
    {
      "bufferView": 1,
      "componentType": 5126,
      "count": 804,
      "max": [
        0.7053131461143494,
        0.9161677956581116
      ],
      "min": [
        0.3412402868270874,
        0.8879128694534302
      ],
      "type": "VEC2"
    },
    {
      "bufferView": 1,
      "byteOffset": 6432,
      "componentType": 5126,
      "count": 804,
      "max": [
        0.7053131461143494,
        0.9161677956581116
      ],
      "min": [
        0.3412402868270874,
        0.8879128694534302
      ],
      "type": "VEC2"
    },
    {
      "bufferView": 0,
      "componentType": 5125,
      "count": 1968,
      "type": "SCALAR"
    },
    {
      "bufferView": 2,
      "byteOffset": 19296,
      "componentType": 5126,
      "count": 778,
      "max": [
        0.8790462613105774,
        1.4882525205612183,
        2.1175570487976074
      ],
      "min": [
        -0.8790462613105774,
        0.2279425859451294,
        -2.1199517250061035
      ],
      "type": "VEC3"
    },
    {
      "bufferView": 2,
      "byteOffset": 28632,
      "componentType": 5126,
      "count": 778,
      "max": [
        1.0,
        1.0,
        1.0
      ],
      "min": [
        -1.0,
        -1.0,
        -1.0
      ],
      "type": "VEC3"
    },
    {
      "bufferView": 1,
      "byteOffset": 12864,
      "componentType": 5126,
      "count": 778,
      "max": [
        0.7738815546035767,
        0.8789231181144714
      ],
      "min": [
        0.3051316440105438,
        0.08724680542945862
      ],
      "type": "VEC2"
    },
    {
      "bufferView": 1,
      "byteOffset": 19088,
      "componentType": 5126,
      "count": 778,
      "max": [
        0.7738815546035767,
        0.8789231181144714
      ],
      "min": [
        0.3051316440105438,
        0.08724680542945862
      ],
      "type": "VEC2"
    },
    {
      "bufferView": 0,
      "byteOffset": 7872,
      "componentType": 5125,
      "count": 1860,
      "type": "SCALAR"
    },
    {
      "bufferView": 2,
      "byteOffset": 37968,
      "componentType": 5126,
      "count": 1892,
      "max": [
        0.9947341084480286,
        1.4102585315704346,
        2.1175570487976074
      ],
      "min": [
        -0.9947341084480286,
        0.22585046291351318,
        -2.0954108238220215
      ],
      "type": "VEC3"
    },
    {
      "bufferView": 2,
      "byteOffset": 60672,
      "componentType": 5126,
      "count": 1892,
      "max": [
        1.0,
        1.0,
        1.0
      ],
      "min": [
        -1.0,
        -1.0,
        -1.0
      ],
      "type": "VEC3"
    },
    {
      "bufferView": 1,
      "byteOffset": 25312,
      "componentType": 5126,
      "count": 1892,
      "max": [
        0.9675195217132568,
        0.923748254776001
      ],
      "min": [
        0.19242149591445923,
        0.645374596118927
      ],
      "type": "VEC2"
    },
    {
      "bufferView": 1,
      "byteOffset": 40448,
      "componentType": 5126,
      "count": 1892,
      "max": [
        0.9675195217132568,
        0.923748254776001
      ],
      "min": [
        0.19242149591445923,
        0.645374596118927
      ],
      "type": "VEC2"
    },
    {
      "bufferView": 0,
      "byteOffset": 15312,
      "componentType": 5125,
      "count": 3930,
      "type": "SCALAR"
    },
    {
      "bufferView": 2,
      "byteOffset": 83376,
      "componentType": 5126,
      "count": 224,
      "max": [
        0.8022485375404358,
        1.4102585315704346,
        2.0299768447875977
      ],
      "min": [
        -0.8022485375404358,
        0.6214151978492737,
        -2.0291638374328613
      ],
      "type": "VEC3"
    },
    {
      "bufferView": 2,
      "byteOffset": 86064,
      "componentType": 5126,
      "count": 224,
      "max": [
        0.9696927666664124,
        0.9152677059173584,
        0.8269062042236328
      ],
      "min": [
        -0.9696927666664124,
        -0.7839751243591309,
        -0.9409031867980957
      ],
      "type": "VEC3"
    },
    {
      "bufferView": 1,
      "byteOffset": 55584,
      "componentType": 5126,
      "count": 224,
      "max": [
        0.6077674627304077,
        0.9036772847175598
      ],
      "min": [
        0.18901373445987701,
        0.635209858417511
      ],
      "type": "VEC2"
    },
    {
      "bufferView": 1,
      "byteOffset": 57376,
      "componentType": 5126,
      "count": 224,
      "max": [
        0.6077674627304077,
        0.9036772847175598
      ],
      "min": [
        0.18901373445987701,
        0.635209858417511
      ],
      "type": "VEC2"
    },
    {
      "bufferView": 0,
      "byteOffset": 31032,
      "componentType": 5125,
      "count": 402,
      "type": "SCALAR"
    },
    {
      "bufferView": 2,
      "byteOffset": 88752,
      "componentType": 5126,
      "count": 804,
      "max": [
        0.11000002920627594,
        0.33229559659957886,
        0.33229559659957886
      ],
      "min": [
        -0.10999996215105057,
        -0.33229559659957886,
        -0.33229559659957886
      ],
      "type": "VEC3"
    },
    {
      "bufferView": 2,
      "byteOffset": 98400,
      "componentType": 5126,
      "count": 804,
      "max": [
        1.0,
        1.0,
        1.0
      ],
      "min": [
        -1.0,
        -1.0,
        -1.0
      ],
      "type": "VEC3"
    },
    {
      "bufferView": 1,
      "byteOffset": 59168,
      "componentType": 5126,
      "count": 804,
      "max": [
        0.7053131461143494,
        0.9161677956581116
      ],
      "min": [
        0.3412402868270874,
        0.8879128694534302
      ],
      "type": "VEC2"
    },
    {
      "bufferView": 1,
      "byteOffset": 65600,
      "componentType": 5126,
      "count": 804,
      "max": [
        0.7053131461143494,
        0.9161677956581116
      ],
      "min": [
        0.3412402868270874,
        0.8879128694534302
      ],
      "type": "VEC2"
    },
    {
      "bufferView": 0,
      "byteOffset": 32640,
      "componentType": 5125,
      "count": 1968,
      "type": "SCALAR"
    },
    {
      "bufferView": 2,
      "byteOffset": 108048,
      "componentType": 5126,
      "count": 804,
      "max": [
        0.11000004410743713,
        0.33229559659957886,
        0.33229562640190125
      ],
      "min": [
        -0.1100001260638237,
        -0.33229559659957886,
        -0.33229562640190125
      ],
      "type": "VEC3"
    },
    {
      "bufferView": 2,
      "byteOffset": 117696,
      "componentType": 5126,
      "count": 804,
      "max": [
        1.0,
        1.0,
        1.0
      ],
      "min": [
        -1.0,
        -1.0,
        -1.0
      ],
      "type": "VEC3"
    },
    {
      "bufferView": 1,
      "byteOffset": 72032,
      "componentType": 5126,
      "count": 804,
      "max": [
        0.7053131461143494,
        0.9161677956581116
      ],
      "min": [
        0.3412402868270874,
        0.8879128694534302
      ],
      "type": "VEC2"
    },
    {
      "bufferView": 1,
      "byteOffset": 78464,
      "componentType": 5126,
      "count": 804,
      "max": [
        0.7053131461143494,
        0.9161677956581116
      ],
      "min": [
        0.3412402868270874,
        0.8879128694534302
      ],
      "type": "VEC2"
    },
    {
      "bufferView": 0,
      "byteOffset": 40512,
      "componentType": 5125,
      "count": 1968,
      "type": "SCALAR"
    },
    {
      "bufferView": 2,
      "byteOffset": 127344,
      "componentType": 5126,
      "count": 804,
      "max": [
        0.11000004410743713,
        0.33229559659957886,
        0.33229562640190125
      ],
      "min": [
        -0.1100001260638237,
        -0.33229559659957886,
        -0.33229562640190125
      ],
      "type": "VEC3"
    },
    {
      "bufferView": 2,
      "byteOffset": 136992,
      "componentType": 5126,
      "count": 804,
      "max": [
        1.0,
        1.0,
        1.0
      ],
      "min": [
        -1.0,
        -1.0,
        -1.0
      ],
      "type": "VEC3"
    },
    {
      "bufferView": 1,
      "byteOffset": 84896,
      "componentType": 5126,
      "count": 804,
      "max": [
        0.7053131461143494,
        0.9161677956581116
      ],
      "min": [
        0.3412402868270874,
        0.8879128694534302
      ],
      "type": "VEC2"
    },
    {
      "bufferView": 1,
      "byteOffset": 91328,
      "componentType": 5126,
      "count": 804,
      "max": [
        0.7053131461143494,
        0.9161677956581116
      ],
      "min": [
        0.3412402868270874,
        0.8879128694534302
      ],
      "type": "VEC2"
    },
    {
      "bufferView": 0,
      "byteOffset": 48384,
      "componentType": 5125,
      "count": 1968,
      "type": "SCALAR"
    }
  ],
  "asset": {
    "extras": {
      "author": "Bandit.545 (https://sketchfab.com/Bandit.545)",
      "license": "CC-BY-4.0 (http://creativecommons.org/licenses/by/4.0/)",
      "source": "https://sketchfab.com/3d-models/golf-gti-13-low-poly-and-stylized-blend-f0e75c7c84b94bc39b1b131ac2b1eec8",
      "title": "Golf GTI '13 (Low Poly and Stylized) (.blend)"
    },
    "generator": "Sketchfab-12.67.0",
    "version": "2.0"
  },
  "bufferViews": [
    {
      "buffer": 0,
      "byteLength": 56256,
      "name": "floatBufferViews",
      "target": 34963
    },
    {
      "buffer": 0,
      "byteLength": 97760,
      "byteOffset": 56256,
      "byteStride": 8,
      "name": "floatBufferViews",
      "target": 34962
    },
    {
      "buffer": 0,
      "byteLength": 146640,
      "byteOffset": 154016,
      "byteStride": 12,
      "name": "floatBufferViews",
      "target": 34962
    }
  ],
  "buffers": [
    {
      "byteLength": 300656,
      "uri": "scene.bin"
    }
  ],
  "extensionsUsed": [
    "KHR_materials_unlit"
  ],
  "images": [
    {
      "uri": "textures/Pallette_baseColor.png"
    },
    {
      "uri": "textures/Golf_GTI_Color_key.png"
    }
  ],
  "materials": [
    {
      "emissiveFactor": [
        0.3,
        0.3,
        0.3
      ],
      "emissiveTexture": {
        "index": 0
      },
      "extensions": {
        "KHR_materials_unlit": {}
      },
      "name": "Pallette",
      "pbrMetallicRoughness": {
        "baseColorTexture": {
          "index": 0
        },
        "metallicFactor": 0.0
      }
    },
    {
      "emissiveFactor": [
        0.5,
        0.5,
        0.5
      ],
      "emissiveTexture": {
        "index": 2
      },
      "extensions": {
        "KHR_materials_unlit": {}
      },
      "name": "Golf_GTI_Color",
      "pbrMetallicRoughness": {
        "baseColorTexture": {
          "index": 1
        },
        "metallicFactor": 0.0
      }
    },
    {
      "alphaMode": "BLEND",
      "emissiveFactor": [
        0.5,
        0.5,
        0.5
      ],
      "emissiveTexture": {
        "index": 0
      },
      "extensions": {
        "KHR_materials_unlit": {}
      },
      "name": "Pallette_Transparent",
      "pbrMetallicRoughness": {
        "baseColorFactor": [
          1.0,
          1.0,
          1.0,
          0.3
        ],
        "baseColorTexture": {
          "index": 0
        },
        "metallicFactor": 0.0
      }
    }
  ],
  "meshes": [
    {
      "name": "Object_0",
      "primitives": [
        {
          "attributes": {
            "NORMAL": 1,
            "POSITION": 0,
            "TEXCOORD_0": 2,
            "TEXCOORD_1": 3
          },
          "indices": 4,
          "material": 0,
          "mode": 4
        }
      ]
    },
    {
      "name": "Object_1",
      "primitives": [
        {
          "attributes": {
            "NORMAL": 6,
            "POSITION": 5,
            "TEXCOORD_0": 7,
            "TEXCOORD_1": 8
          },
          "indices": 9,
          "material": 1,
          "mode": 4
        }
      ]
    },
    {
      "name": "Object_2",
      "primitives": [
        {
          "attributes": {
            "NORMAL": 11,
            "POSITION": 10,
            "TEXCOORD_0": 12,
            "TEXCOORD_1": 13
          },
          "indices": 14,
          "material": 0,
          "mode": 4
        }
      ]
    },
    {
      "name": "Object_3",
      "primitives": [
        {
          "attributes": {
            "NORMAL": 16,
            "POSITION": 15,
            "TEXCOORD_0": 17,
            "TEXCOORD_1": 18
          },
          "indices": 19,
          "material": 2,
          "mode": 4
        }
      ]
    },
    {
      "name": "Object_4",
      "primitives": [
        {
          "attributes": {
            "NORMAL": 21,
            "POSITION": 20,
            "TEXCOORD_0": 22,
            "TEXCOORD_1": 23
          },
          "indices": 24,
          "material": 0,
          "mode": 4
        }
      ]
    },
    {
      "name": "Object_5",
      "primitives": [
        {
          "attributes": {
            "NORMAL": 26,
            "POSITION": 25,
            "TEXCOORD_0": 27,
            "TEXCOORD_1": 28
          },
          "indices": 29,
          "material": 0,
          "mode": 4
        }
      ]
    },
    {
      "name": "Object_6",
      "primitives": [
        {
          "attributes": {
            "NORMAL": 31,
            "POSITION": 30,
            "TEXCOORD_0": 32,
            "TEXCOORD_1": 33
          },
          "indices": 34,
          "material": 0,
          "mode": 4
        }
      ]
    }
  ],
  "nodes": [
    {
      "children": [
        1
      ],
      "matrix": [
        1.0,
        0.0,
        0.0,
        0.0,
        0.0,
        2.220446049250313e-16,
        -1.0,
        0.0,
        0.0,
        1.0,
        2.220446049250313e-16,
        0.0,
        0.0,
        0.0,
        0.0,
        1.0
      ],
      "name": "Sketchfab_model"
    },
    {
      "children": [
        2
      ],
      "name": "root"
    },
    {
      "children": [
        3,
        5,
        9,
        11,
        13
      ],
      "matrix": [
        1.0,
        0.0,
        0.0,
        0.0,
        0.0,
        2.220446049250313e-16,
        1.0,
        0.0,
        0.0,
        -1.0,
        2.220446049250313e-16,
        0.0,
        0.0,
        0.0,
        0.0,
        1.0
      ],
      "name": "GLTF_SceneRootNode"
    },
    {
      "children": [
        4
      ],
      "matrix": [
        0.8191520482471555,
        0.0,
        0.5735764306982024,
        0.0,
        0.0,
        1.0,
        0.0,
        0.0,
        -0.5735764306982024,
        0.0,
        0.8191520482471555,
        0.0,
        0.7747700810432434,
        0.33343005180358887,
        1.268851637840271,
        1.0
      ],
      "name": "Whl_0_0"
    },
    {
      "mesh": 0,
      "name": "Object_4"
    },
    {
      "children": [
        6,
        7,
        8
      ],
      "name": "Body_1"
    },
    {
      "mesh": 1,
      "name": "Object_6"
    },
    {
      "mesh": 2,
      "name": "Object_7"
    },
    {
      "mesh": 3,
      "name": "Object_8"
    },
    {
      "children": [
        10
      ],
      "matrix": [
        1.0,
        0.0,
        0.0,
        0.0,
        0.0,
        1.0,
        0.0,
        0.0,
        0.0,
        0.0,
        1.0,
        0.0,
        0.7747700810432434,
        0.33343005180358887,
        -1.3614799976348877,
        1.0
      ],
      "name": "Whl_2_2"
    },
    {
      "mesh": 4,
      "name": "Object_10"
    },
    {
      "children": [
        12
      ],
      "matrix": [
        0.8191520482471555,
        0.0,
        0.5735764306982024,
        0.0,
        -0.0,
        1.0,
        0.0,
        0.0,
        -0.5735764306982024,
        0.0,
        0.8191520482471555,
        0.0,
        -0.7747700214385986,
        0.33343005180358887,
        1.268851637840271,
        1.0
      ],
      "name": "Whl_1_3"
    },
    {
      "mesh": 5,
      "name": "Object_12"
    },
    {
      "children": [
        14
      ],
      "matrix": [
        1.0,
        0.0,
        0.0,
        0.0,
        0.0,
        1.0,
        0.0,
        0.0,
        0.0,
        0.0,
        1.0,
        0.0,
        -0.7747700214385986,
        0.33343005180358887,
        -1.3614799976348877,
        1.0
      ],
      "name": "Whl_3_4"
    },
    {
      "mesh": 6,
      "name": "Object_14"
    }
  ],
  "samplers": [
    {
      "magFilter": 9728,
      "minFilter": 9986,
      "wrapS": 10497,
      "wrapT": 10497
    },
    {
      "magFilter": 9729,
      "minFilter": 9987,
      "wrapS": 10497,
      "wrapT": 10497
    }
  ],
  "scene": 0,
  "scenes": [
    {
      "name": "Sketchfab_Scene",
      "nodes": [
        0
      ]
    }
  ],
  "textures": [
    {
      "sampler": 0,
      "source": 0
    },
    {
      "sampler": 0,
      "source": 1
    },
    {
      "sampler": 1,
      "source": 1
    }
  ]
}
